<svg width="16" height="12" viewBox="0 0 16 12" fill="none" xmlns="http://www.w3.org/2000/svg">
<path d="M15.6177 5.37656C13.9177 3.97656 12.2177 2.57655 10.5177 1.17655C10.0177 0.776548 9.41772 0.676548 8.91772 1.17655C8.51772 1.57655 8.41772 2.37652 8.91772 2.77652C9.81772 3.47652 10.7177 4.27654 11.6177 4.97654C8.81768 4.97654 5.91768 4.97654 3.11768 4.97654C2.61768 4.97654 2.11768 4.97654 1.61768 4.97654C0.117676 4.97654 0.117676 7.27652 1.61768 7.27652C4.91768 7.27652 8.11772 7.27652 11.4177 7.27652C10.7177 7.87652 9.91765 8.37654 9.21765 8.97654C8.71765 9.37654 8.51763 9.97657 8.81763 10.5766C9.11763 11.0766 9.91772 11.3765 10.4177 10.9765C12.1177 9.67654 13.8177 8.47655 15.5177 7.17655C15.9177 6.77655 16.3177 5.87656 15.6177 5.37656Z" fill="black"/>
</svg>
