<svg width="26" height="26" viewBox="0 0 26 26" fill="none" xmlns="http://www.w3.org/2000/svg">
<path d="M22.3047 0.5C16.7047 0.5 11.0048 0.5 5.40476 0.5C4.60476 0.5 3.80473 0.5 3.00473 0.5C1.40473 0.5 -0.0952657 1.9 0.00473431 3.5C0.104734 5.1 1.30473 6.5 3.00473 6.5C7.00473 6.5 11.0047 6.5 15.0047 6.5C11.1047 10.4 7.20472 14.3 3.30472 18.2C2.50472 19 1.80473 19.7 1.00473 20.5C-0.0952657 21.6 -0.195266 23.6 1.00473 24.7C2.20473 25.8 4.10475 25.9 5.20475 24.7C9.90475 20 14.5047 15.4 19.2047 10.7C19.2047 13.1 19.2047 15.6 19.2047 18C19.2047 18.7 19.2047 19.3999 19.2047 20.0999C19.2047 21.6999 20.6047 23.1999 22.2047 23.0999C23.8047 22.9999 25.2047 21.7999 25.2047 20.0999C25.2047 15.1999 25.2047 10.4 25.2047 5.5C25.2047 4.8 25.2047 4.0999 25.2047 3.3999C25.3047 1.8999 23.9047 0.5 22.3047 0.5Z" fill="#DE2A1B"/>
</svg>
