<svg width="48" height="49" viewBox="0 0 48 49" fill="none" xmlns="http://www.w3.org/2000/svg">
<path d="M12 14.375H22C22.5304 14.375 23.0391 14.5857 23.4142 14.9608C23.7893 15.3359 24 15.8446 24 16.375C24 16.9054 23.7893 17.4141 23.4142 17.7892C23.0391 18.1643 22.5304 18.375 22 18.375H12C11.4696 18.375 10.9609 18.1643 10.5858 17.7892C10.2107 17.4141 10 16.9054 10 16.375C10 15.8446 10.2107 15.3359 10.5858 14.9608C10.9609 14.5857 11.4696 14.375 12 14.375V14.375ZM26 30.375H36C36.5304 30.375 37.0391 30.5857 37.4142 30.9608C37.7893 31.3359 38 31.8446 38 32.375C38 32.9054 37.7893 33.4141 37.4142 33.7892C37.0391 34.1643 36.5304 34.375 36 34.375H26C25.4696 34.375 24.9609 34.1643 24.5858 33.7892C24.2107 33.4141 24 32.9054 24 32.375C24 31.8446 24.2107 31.3359 24.5858 30.9608C24.9609 30.5857 25.4696 30.375 26 30.375ZM12 22.375H36C36.5304 22.375 37.0391 22.5857 37.4142 22.9608C37.7893 23.3359 38 23.8446 38 24.375C38 24.9054 37.7893 25.4141 37.4142 25.7892C37.0391 26.1643 36.5304 26.375 36 26.375H12C11.4696 26.375 10.9609 26.1643 10.5858 25.7892C10.2107 25.4141 10 24.9054 10 24.375C10 23.8446 10.2107 23.3359 10.5858 22.9608C10.9609 22.5857 11.4696 22.375 12 22.375Z" fill="#F26522"/>
</svg>
