<svg width="24" height="26" viewBox="0 0 24 26" fill="none" xmlns="http://www.w3.org/2000/svg">
<path d="M6.33114 21.9694L6.72348 22.1669C8.35845 23.154 10.1895 23.6147 12.0205 23.6147C17.7753 23.6147 22.4837 18.8762 22.4837 13.0847C22.4837 10.3206 21.372 7.62228 19.4102 5.64787C17.4483 3.67346 14.8324 2.55469 12.0205 2.55469C6.2658 2.55469 1.55728 7.29319 1.62271 13.1506C1.62271 15.1249 2.21127 17.0335 3.19216 18.6788L3.45372 19.0737L2.40748 22.9567L6.33114 21.9694Z" fill="#00E676"/>
<path d="M20.534 4.37859C18.3106 2.07519 15.237 0.824707 12.0981 0.824707C5.42785 0.824707 0.0654365 6.28714 0.130779 12.9342C0.130779 15.0402 0.719332 17.0805 1.70032 18.9232L0 25.1754L6.34331 23.5301C8.10897 24.5173 10.0707 24.978 12.0327 24.978C18.6376 24.978 24 19.5155 24 12.8685C24 9.64364 22.7574 6.61622 20.534 4.37859ZM12.0981 22.9379C10.3324 22.9379 8.56674 22.4773 7.06264 21.5559L6.6703 21.3584L2.87742 22.3455L3.85831 18.5943L3.59676 18.1994C0.719333 13.5267 2.09265 7.34015 6.80108 4.44435C11.5095 1.54864 17.5913 2.93073 20.4687 7.66924C23.346 12.4077 21.9727 18.5283 17.2644 21.4241C15.7602 22.4113 13.9292 22.9379 12.0981 22.9379ZM17.8528 15.6327L17.1335 15.3036C17.1335 15.3036 16.0872 14.8429 15.4333 14.5139C15.3678 14.5139 15.3025 14.448 15.237 14.448C15.0408 14.448 14.91 14.5139 14.7793 14.5797C14.7793 14.5797 14.7139 14.6455 13.7984 15.6985C13.7329 15.8301 13.6022 15.896 13.4714 15.896H13.4059C13.3406 15.896 13.2098 15.8301 13.1444 15.7643L12.8174 15.6327C12.0981 15.3036 11.4442 14.9087 10.921 14.3822C10.7902 14.2506 10.594 14.119 10.4632 13.9874C10.0054 13.5267 9.54763 13.0001 9.22073 12.4078L9.15529 12.2762C9.08995 12.2104 9.08995 12.1446 9.02452 12.013C9.02452 11.8814 9.02452 11.7498 9.08995 11.6839C9.08995 11.6839 9.35151 11.3548 9.54763 11.1574C9.6785 11.0257 9.74385 10.8284 9.87463 10.6968C10.0054 10.4993 10.0708 10.2361 10.0054 10.0386C9.94006 9.7095 9.15529 7.93256 8.95917 7.53771C8.8283 7.34025 8.69761 7.27449 8.5014 7.20863H7.78207C7.65119 7.20863 7.52051 7.27449 7.38963 7.27449L7.3242 7.34025C7.19342 7.4061 7.06264 7.53771 6.93186 7.60348C6.80108 7.73518 6.73564 7.86671 6.60487 7.99841C6.14709 8.59073 5.88553 9.31465 5.88553 10.0386C5.88553 10.565 6.01631 11.0916 6.21253 11.5523L6.27796 11.7498C6.86652 13.0001 7.65119 14.119 8.69761 15.1062L8.95917 15.3694C9.15529 15.5669 9.35151 15.6985 9.48229 15.8959C10.8556 17.0806 12.4251 17.9361 14.1907 18.3968C14.3869 18.4626 14.6485 18.4626 14.8447 18.5284H15.4986C15.8256 18.5284 16.2179 18.3968 16.4796 18.2652C16.6757 18.1336 16.8065 18.1336 16.9373 18.002L17.0681 17.8703C17.1989 17.7387 17.3297 17.6729 17.4605 17.5413C17.5913 17.4097 17.722 17.278 17.7875 17.1463C17.9183 16.8831 17.9836 16.554 18.049 16.225V15.7643C18.049 15.7643 17.9836 15.6985 17.8528 15.6327Z" fill="white"/>
</svg>
