<svg width="82" height="83" viewBox="0 0 82 83" fill="none" xmlns="http://www.w3.org/2000/svg">
<g clip-path="url(#clip0_1217_4443)">
<path d="M40.9996 0.37207C33.4638 0.37207 27.333 6.50301 27.333 14.0387C27.333 15.5991 27.5941 17.13 28.1091 18.5889C28.3604 19.3008 29.1413 19.6738 29.8527 19.4227C30.5646 19.1714 30.9378 18.3906 30.6865 17.679C30.4263 16.9418 30.2477 16.1811 30.1511 15.4055H34.2018C34.2905 17.2839 34.5578 19.1039 34.9941 20.7329C35.1049 21.1464 35.3958 21.4608 35.7583 21.623C36.0027 21.9938 36.4224 22.2387 36.8996 22.2387H47.4912C48.246 22.2387 48.8578 21.6267 48.8578 20.8721C48.8578 20.1173 48.2459 19.5055 47.4912 19.5055H47.2915C47.5596 18.21 47.7303 16.8254 47.7973 15.4055H51.846C51.7363 16.2865 51.5227 17.148 51.2019 17.9782C50.9299 18.6823 51.2802 19.4736 51.9841 19.7455C52.146 19.8082 52.3126 19.8378 52.4763 19.8378C53.0245 19.8378 53.5419 19.5055 53.7514 18.9633C54.3584 17.3928 54.6661 15.736 54.6661 14.0388C54.6662 6.50301 48.5353 0.37207 40.9996 0.37207ZM31.5371 8.57207H34.6959C34.4343 9.83987 34.2636 11.2159 34.1978 12.6721H30.1548C30.3399 11.1938 30.8207 9.80719 31.5371 8.57207ZM43.573 5.83868H38.4261C39.2241 4.08561 40.1985 3.1053 40.9995 3.1053C41.8004 3.1053 42.7748 4.08561 43.573 5.83868ZM45.8586 4.24833C46.7154 4.67547 47.5084 5.21151 48.2198 5.83884H46.5397C46.3336 5.27157 46.1062 4.73969 45.8586 4.24833ZM35.4595 5.83868H33.7795C34.4909 5.21151 35.2836 4.67531 36.1406 4.24817C35.8929 4.73969 35.6655 5.27157 35.4595 5.83868ZM37.5077 8.57207H44.4913C44.7806 9.77404 44.9854 11.1498 45.0636 12.6721H36.9353C37.0137 11.1498 37.2185 9.77404 37.5077 8.57207ZM47.3034 8.57207H50.4621C51.1785 9.80719 51.6593 11.1938 51.8446 12.6721H47.8015C47.7355 11.2159 47.5649 9.83987 47.3034 8.57207ZM44.4933 19.5055H37.5057C37.2042 18.2348 37.012 16.8446 36.9373 15.4055H45.062C44.9872 16.8445 44.7945 18.2349 44.4933 19.5055Z" fill="#11BBA3"/>
<path d="M61.4097 24.5731C60.1509 22.3585 57.3355 21.5833 55.1207 22.8417C52.9059 24.1004 52.1308 26.9161 53.3893 29.1307C55.2421 32.391 57.3546 37.6694 56.898 44.3015C56.5008 50.0682 54.2615 54.6289 52.0918 57.7719H48.2273C50.5896 55.6881 52.0463 52.6018 51.9258 49.1771C51.7217 43.3926 46.9449 38.7215 41.1575 38.6398C35.0466 38.5535 30.066 43.4812 30.066 49.5721C30.066 52.8388 31.5004 55.7685 33.7716 57.7721H29.907C27.7375 54.6289 25.4984 50.0686 25.1009 44.3017C24.6441 37.6697 26.7567 32.3912 28.6096 29.1309C29.8681 26.9161 29.0931 24.1005 26.8781 22.8418C24.6633 21.5835 21.8478 22.3585 20.5891 24.5733C18.1096 28.9366 15.283 36.0109 15.8978 44.9357C16.6742 56.2078 22.6452 64.0092 25.966 67.5237V79.6389C25.966 81.1485 27.1898 82.3722 28.6994 82.3722H53.2994C54.809 82.3722 56.0328 81.1485 56.0328 79.6389V67.5237C59.3536 64.0094 65.3246 56.2078 66.101 44.9357C66.7157 36.0109 63.8891 28.9364 61.4097 24.5731Z" fill="#E8E6D9"/>
<path d="M29.2862 79.6387V67.5235C25.9654 64.0092 19.9944 56.2077 19.218 44.9356C18.6032 36.0107 21.4298 28.9363 23.9093 24.5732C24.4572 23.6092 25.3003 22.9183 26.2601 22.5488C24.1636 21.737 21.7333 22.56 20.5891 24.5732C18.1096 28.9365 15.283 36.0107 15.8978 44.9356C16.6742 56.2077 22.6452 64.0091 25.966 67.5235V79.6387C25.966 81.1482 27.1898 82.3721 28.6994 82.3721H32.0196C30.51 82.3721 29.2862 81.1482 29.2862 79.6387Z" fill="#D1CDB2"/>
<path d="M30.8262 53.58C31.1223 54.2177 31.4335 54.8242 31.7533 55.3994C32.3121 56.2833 32.991 57.0836 33.7718 57.7726H37.092C34.821 55.769 33.3864 52.8393 33.3864 49.5725C33.3864 44.1002 37.4076 39.5694 42.656 38.7676C42.1657 38.6919 41.6659 38.6475 41.1575 38.6403C35.0469 38.5536 30.0664 43.4813 30.0664 49.5722C30.0664 50.9875 30.3364 52.3391 30.8262 53.58Z" fill="#D1CDB2"/>
<path d="M19.5796 15.866C19.844 15.6015 20.2111 15.4662 20.5838 15.4944C21.1161 15.5354 33.678 16.5557 38.7862 21.6642C43.0875 25.9656 43.5119 32.2797 39.7526 36.0392C38.0347 37.7571 35.7839 38.6013 33.4349 38.6013C30.6435 38.6013 27.7135 37.4087 25.3777 35.0729C20.2696 29.9647 19.2489 17.4025 19.2079 16.8705C19.1792 16.4973 19.3149 16.1305 19.5796 15.866Z" fill="#66BF00"/>
<path d="M62.4899 15.866C62.2255 15.6015 61.8584 15.4662 61.4857 15.4944C60.9533 15.5354 48.3915 16.5557 43.2833 21.6642C38.982 25.9656 38.5576 32.2797 42.3169 36.0392C44.0347 37.7571 46.2856 38.6013 48.6346 38.6013C51.426 38.6013 54.356 37.4087 56.6917 35.0729C61.7999 29.9647 62.8206 17.4025 62.8616 16.8705C62.8903 16.4973 62.7544 16.1305 62.4899 15.866Z" fill="#66BF00"/>
<path d="M62.6591 16.0742C62.1724 19.8867 60.6743 28.3955 56.6929 32.377C54.3574 34.7129 51.4273 35.9054 48.6359 35.9054C47.3635 35.9054 46.1207 35.6554 44.9751 35.1554L47.5909 32.549H52.8879C53.5955 32.549 54.1692 31.9753 54.1692 31.2678C54.1692 30.5602 53.5955 29.9865 52.8879 29.9865H50.1629L55.7253 24.4443C56.2267 23.9448 56.228 23.1337 55.7286 22.6325C55.2291 22.131 54.4178 22.1297 53.9168 22.6291L48.3714 28.1545V25.4693C48.3714 24.7617 47.7977 24.1881 47.0901 24.1881C46.3826 24.1881 45.8089 24.7617 45.8089 25.4693V30.7075L42.7565 33.7489C42.6075 33.6189 42.4606 33.4851 42.3186 33.3432C41.8155 32.8402 41.39 32.2902 41.0359 31.7066C40.682 32.2902 40.2563 32.84 39.7532 33.3432C39.6113 33.4851 39.4643 33.619 39.3153 33.7489L36.2629 30.7075V25.4693C36.2629 24.7617 35.6892 24.1881 34.9817 24.1881C34.2741 24.1881 33.7004 24.7617 33.7004 25.4693V28.1545L28.155 22.6291C27.6539 22.1297 26.8427 22.131 26.3432 22.6325C25.8438 23.1337 25.8452 23.9449 26.3465 24.4443L31.9089 29.9865H29.1839C28.4763 29.9865 27.9026 30.5602 27.9026 31.2678C27.9026 31.9753 28.4763 32.549 29.1839 32.549H34.4809L37.0967 35.1554C35.9509 35.6554 34.7083 35.9054 33.4357 35.9054C30.6443 35.9054 27.7143 34.7129 25.3785 32.377C21.3971 28.3955 19.899 19.8866 19.4124 16.0742C19.2604 16.308 19.1871 16.5874 19.2088 16.8705C19.2498 17.4029 20.2702 29.9647 25.3787 35.0729C27.7143 37.4088 30.6443 38.6013 33.4358 38.6013C35.7849 38.6013 38.0357 37.7573 39.7535 36.0393C40.2566 35.5362 40.6821 34.9863 41.0362 34.4027C41.3902 34.9863 41.8159 35.5361 42.3189 36.0393C44.0367 37.7571 46.2876 38.6013 48.6366 38.6013C51.428 38.6013 54.358 37.4088 56.6937 35.0729C61.8019 29.9647 62.8226 17.4026 62.8636 16.8705C62.8844 16.5872 62.8111 16.308 62.6591 16.0742Z" fill="#58AB23"/>
</g>
<defs>
<clipPath id="clip0_1217_4443">
<rect width="82" height="82" fill="white" transform="translate(0 0.37207)"/>
</clipPath>
</defs>
</svg>
