<svg width="83" height="83" viewBox="0 0 83 83" fill="none" xmlns="http://www.w3.org/2000/svg">
<g clip-path="url(#clip0_1217_4510)">
<path d="M72.0357 16.1117L57.0783 1.15425C56.5769 0.65341 55.8978 0.37207 55.1896 0.37207H12.8536C11.3784 0.37207 10.1826 1.56783 10.1826 3.04301V73.0901C10.1826 74.5652 11.3784 75.7613 12.8536 75.7613H25.6077V79.7011C25.6077 80.686 26.15 81.5913 27.018 82.0559C27.8869 82.5214 28.9407 82.4695 29.7602 81.9234L34.8892 78.504L40.0185 81.9234C40.4652 82.2216 40.982 82.3721 41.5003 82.3721C41.9321 82.3721 42.3655 82.2674 42.7604 82.0559C43.6287 81.591 44.1709 80.686 44.1709 79.7011V75.7613H70.1464C71.6216 75.7613 72.8174 74.5652 72.8174 73.0901V18.0004C72.8179 17.292 72.5366 16.6128 72.0357 16.1117ZM57.8605 9.49146L63.6982 15.3295H57.8602L57.8605 9.49146ZM41.8711 52.9526C41.4445 53.417 41.1957 54.0169 41.169 54.647L41.0596 57.2246L38.4823 57.3339C37.8525 57.361 37.2526 57.6089 36.7882 58.0355L34.8892 59.7801L32.9905 58.0355C32.5264 57.6094 31.9261 57.361 31.2964 57.3339L28.7188 57.2246L28.6097 54.6472C28.5829 54.0175 28.3344 53.4172 27.9076 52.9531L26.1632 51.0541L27.9076 49.1557C28.3342 48.6913 28.5829 48.0914 28.6097 47.4613L28.719 44.8837L31.2964 44.7744C31.9259 44.7473 32.5264 44.4988 32.9905 44.0728L34.8892 42.3282L36.7882 44.0728C37.2523 44.4988 37.8525 44.7473 38.4823 44.7744L41.0596 44.8837L41.169 47.4613C41.1957 48.0908 41.4445 48.6911 41.8711 49.1552L43.6154 51.0541L41.8711 52.9526ZM36.3713 73.0716C35.9226 72.7723 35.406 72.6229 34.8895 72.6229C34.3732 72.6229 33.8569 72.7723 33.4082 73.0716L30.9499 74.7099V63.4152L33.0827 65.3749C33.5938 65.844 34.2415 66.0789 34.8897 66.0789C35.5383 66.0789 36.186 65.844 36.6971 65.3749L38.8299 63.4152V74.7099L36.3713 73.0716ZM44.1715 70.4191V62.4019C45.3487 62.1564 46.2408 61.1407 46.2935 59.9024L46.465 55.8482L49.2096 52.8615C50.1486 51.8396 50.1486 50.2687 49.2096 49.2471L46.465 46.2598L46.2935 42.2059C46.2347 40.8199 45.1246 39.7094 43.738 39.6503L39.6841 39.4783L36.6968 36.7337C35.6747 35.7952 34.1045 35.7952 33.0824 36.7337L30.0951 39.4783L26.0412 39.6503C24.6549 39.7094 23.5445 40.8196 23.4857 42.2061L23.3142 46.26L20.5696 49.2468C19.6306 50.2687 19.6306 51.8396 20.5696 52.8612L23.3139 55.8482L23.4854 59.9021C23.5378 61.1404 24.4302 62.1562 25.6077 62.4016V70.4191H15.5248V5.71422H52.5184V18.0004C52.5184 19.4756 53.7144 20.6716 55.1896 20.6716H67.4758V70.4194L44.1715 70.4191Z" fill="#2D4E15"/>
</g>
<defs>
<clipPath id="clip0_1217_4510">
<rect width="82" height="82" fill="white" transform="translate(0.5 0.37207)"/>
</clipPath>
</defs>
</svg>
