<svg width="83" height="83" viewBox="0 0 83 83" fill="none" xmlns="http://www.w3.org/2000/svg">
<g clip-path="url(#clip0_1217_4453)">
<path d="M10.3661 43.6587H13.3153L14.1881 42.0547H10.249L10.3661 43.6587Z" fill="#BADFE8"/>
<path d="M27.1896 14.3154C26.5184 14.781 25.758 15.0457 24.9522 15.0457C24.1464 15.0457 23.3861 14.7812 22.7148 14.3154V15.2803L24.9522 19.6594L27.1896 15.2803V14.3154Z" fill="#C69C6D"/>
<path d="M26.8076 18.0772L29.2094 19.1715L29.3267 16.4617L27.8866 15.9653L26.8076 18.0772Z" fill="#BADFE8"/>
<path d="M25.4189 20.7955V44.1591H31.4716V26.4502C31.4716 26.3676 31.4944 26.3059 31.4975 26.297L34.1911 18.5644C33.599 18.0347 32.7794 17.5531 31.6411 17.258C31.6295 17.255 31.6178 17.2515 31.6062 17.2475L30.2465 16.7788L30.1109 19.9026C30.1042 20.0573 30.021 20.1986 29.8888 20.2797C29.8145 20.3254 29.73 20.3485 29.6452 20.3485C29.5793 20.3485 29.5135 20.3346 29.452 20.3066L26.3831 18.9084L25.4189 20.7955Z" fill="#BADFE8"/>
<path d="M35.3156 41.1224H39.5915L35.715 21.3588C35.7118 21.3427 35.7096 21.3265 35.7081 21.3101C35.7016 21.2426 35.5992 20.3288 34.9028 19.356L32.4199 26.484L35.3156 41.1224Z" fill="#BADFE8"/>
<path d="M36.5897 43.659H39.2591C39.3566 43.5753 39.4556 43.4975 39.5559 43.4258L39.6561 42.0552H35.7168L36.5897 43.659Z" fill="#BADFE8"/>
<path d="M23.0972 18.0774L22.0182 15.9653L20.5781 16.4617L20.6954 19.1715L23.0972 18.0774Z" fill="#BADFE8"/>
<path d="M10.2002 45.6601C10.1567 45.995 10.2464 46.3278 10.4528 46.5963C10.6594 46.8646 10.9579 47.0363 11.2937 47.0799C11.6293 47.1233 11.9623 47.0338 12.2306 46.8273C12.4989 46.6207 12.6708 46.322 12.7144 45.9862C12.7163 45.9733 12.7183 45.9605 12.7211 45.9478L13.0142 44.5908H10.3411L10.2002 45.6601Z" fill="#C69C6D"/>
<path d="M24.9522 14.1132C27.1393 14.1132 28.9187 11.5764 28.9187 8.45807V7.11378C28.0198 6.96182 27.4059 6.35494 27.1381 5.37012C26.6043 5.72437 25.8364 5.94083 24.952 5.94083C24.0679 5.94083 23.2999 5.72437 22.7659 5.37012C22.4982 6.35475 21.884 6.96089 20.9854 7.11303V8.45807C20.9855 11.5764 22.765 14.1132 24.9522 14.1132ZM26.6301 8.61301C26.8036 8.43961 27.115 8.43961 27.2882 8.61301C27.3759 8.69877 27.4262 8.81996 27.4262 8.94115C27.4262 9.06421 27.3759 9.18354 27.2882 9.27117C27.2025 9.3588 27.0813 9.40727 26.9601 9.40727C26.837 9.40727 26.7156 9.3588 26.6301 9.27117C26.5424 9.1854 26.494 9.06421 26.494 8.94115C26.494 8.8181 26.5424 8.69877 26.6301 8.61301ZM23.7444 11.2033C23.9635 11.2033 24.1473 11.3545 24.1973 11.5581C24.2879 11.6141 24.5463 11.7108 24.9522 11.7108C25.3581 11.7108 25.6163 11.6139 25.7071 11.5581C25.7571 11.3544 25.941 11.2033 26.16 11.2033C26.4175 11.2033 26.6261 11.412 26.6261 11.6694C26.6261 12.2428 25.938 12.6433 24.9522 12.6433C23.9667 12.6433 23.2783 12.243 23.2783 11.6694C23.2783 11.412 23.4869 11.2033 23.7444 11.2033ZM22.4797 8.94115C22.4797 8.8181 22.5282 8.69877 22.6158 8.61301C22.7874 8.43961 23.1023 8.43793 23.2738 8.61301C23.3616 8.69877 23.4118 8.81996 23.4118 8.94115C23.4118 9.06421 23.3614 9.1854 23.2738 9.27117C23.188 9.3588 23.067 9.40727 22.9438 9.40727C22.8226 9.40727 22.7014 9.3588 22.6157 9.27117C22.5282 9.18559 22.4797 9.06421 22.4797 8.94115Z" fill="#C69C6D"/>
<path d="M21.9869 4.11248C21.9869 3.85499 22.1955 3.64636 22.453 3.64636H22.4533C22.7108 3.64636 22.9195 3.85499 22.9195 4.11248C22.9195 4.47792 23.7113 5.00873 24.9523 5.00873C26.1933 5.00873 26.9851 4.47792 26.9851 4.11248C26.9851 3.85499 27.1938 3.64636 27.4513 3.64636H27.4516C27.7091 3.64636 27.9178 3.85499 27.9178 4.11248C27.9178 5.26622 28.255 5.94899 28.9188 6.15334V3.7724C28.9197 3.72709 28.9281 2.98876 28.2884 2.33507C27.6193 1.65099 26.4967 1.3042 24.9523 1.3042C23.408 1.3042 22.2854 1.65099 21.616 2.33488C20.9763 2.98857 20.9847 3.7269 20.9854 3.75804V6.15315C21.6496 5.9488 21.9869 5.26622 21.9869 4.11248Z" fill="#754C24"/>
<path d="M38.3203 47.9532H39.4767L40.4958 46.33C40.6326 46.112 40.9205 46.0464 41.1383 46.183C41.1998 46.2216 41.2477 46.2731 41.2839 46.3307L41.2852 46.33L42.3043 47.9532H46.5298C46.243 45.0256 44.8393 43.4868 42.425 43.4868C40.011 43.4868 38.6071 45.0256 38.3203 47.9532Z" fill="#B79870"/>
<path d="M55.8311 10.5797V11.4955C55.8311 14.0942 57.3116 16.2085 59.1317 16.2085C60.9518 16.2085 62.4324 14.0942 62.4324 11.4955V10.5797C61.6676 10.3759 59.9585 9.79418 59.1317 8.51123C58.305 9.79399 56.5959 10.3757 55.8311 10.5797ZM57.1608 12.1554C57.0377 12.1554 56.9184 12.105 56.8308 12.0192C56.745 11.9316 56.6947 11.8123 56.6947 11.6892C56.6947 11.5662 56.7452 11.445 56.8308 11.3592C57.0042 11.1858 57.3172 11.1858 57.4908 11.3592C57.5766 11.445 57.6267 11.5662 57.6267 11.6892C57.6267 11.8123 57.5764 11.9316 57.4908 12.0192C57.4032 12.105 57.2839 12.1554 57.1608 12.1554ZM60.7257 11.3592C60.8991 11.1858 61.2123 11.1858 61.3857 11.3592C61.4715 11.4469 61.5218 11.5662 61.5218 11.6892C61.5218 11.8123 61.4713 11.9316 61.3857 12.0192C61.2981 12.105 61.1788 12.1554 61.0557 12.1554C60.9326 12.1554 60.8131 12.105 60.7255 12.0192C60.6397 11.9316 60.5896 11.8123 60.5896 11.6892C60.5898 11.5662 60.6399 11.445 60.7257 11.3592ZM59.9107 13.8265C59.9579 13.6192 60.1434 13.4642 60.3653 13.4642C60.6228 13.4642 60.8314 13.6729 60.8314 13.9303C60.8314 14.5158 60.1229 14.9247 59.1086 14.9247C58.0942 14.9247 57.3858 14.5158 57.3858 13.9303C57.3858 13.6729 57.5945 13.4642 57.852 13.4642C58.0736 13.4642 58.2593 13.6192 58.3065 13.8265C58.3984 13.8862 58.672 13.9924 59.1088 13.9924C59.5453 13.9924 59.8188 13.886 59.9107 13.8265Z" fill="#E5CBBD"/>
<path d="M47.0414 45.8848C47.3255 45.7383 47.5401 45.4726 47.613 45.1495C47.6157 45.1383 47.6185 45.1273 47.6218 45.1165L52.4885 29.1336C52.3458 28.9069 52.2209 28.6526 52.1223 28.3671C52.1217 28.3654 52.1212 28.3637 52.1208 28.3623L49.3694 27.1123L45.6855 43.7423C46.2251 44.2336 46.7071 44.9226 47.0414 45.8848Z" fill="#E5CBBD"/>
<path d="M62.9864 9.753C63.2099 9.79569 63.3651 9.99128 63.3649 10.2109H63.3654V11.4954C63.3654 13.4394 62.6247 15.157 61.5 16.1728V18.5188L64.5442 19.2493C65.0498 19.3683 65.5012 19.5421 65.9069 19.7518C68.7702 16.8794 64.8464 9.26692 64.8054 9.18843C64.7707 9.12187 64.7524 9.04766 64.7524 8.97252C64.7524 7.53911 64.3206 6.39749 63.4689 5.57973C62.2374 4.39728 60.4293 4.15508 59.5986 4.10791V6.92178C59.5986 9.08383 62.9525 9.74666 62.9864 9.753Z" fill="#E0BC4B"/>
<path d="M53.7223 19.2492L56.7644 18.5191V16.1734C55.6396 15.1576 54.8988 13.4399 54.8988 11.4958V10.2113H54.8994C54.8992 9.99188 55.0539 9.7963 55.2773 9.75341C55.3112 9.74689 58.6656 9.07623 58.6656 6.92201V4.10889C57.8328 4.15736 56.0186 4.40273 54.7916 5.58388C53.9425 6.40126 53.5122 7.54158 53.5122 8.97294C53.5122 9.04808 53.4939 9.12229 53.4593 9.18885C53.4182 9.26734 49.4939 16.8804 52.3579 19.7526C52.764 19.5425 53.2159 19.3682 53.7223 19.2492Z" fill="#E0BC4B"/>
<path d="M46.5864 49.1397C46.5864 49.0538 46.5847 48.9697 46.5832 48.8856H42.0469C41.8866 48.8856 41.7374 48.8032 41.6522 48.6672L40.891 47.4546L40.1297 48.6672C40.0445 48.803 39.8953 48.8856 39.735 48.8856H38.2678C38.2663 48.9697 38.2646 49.0538 38.2646 49.1397C38.2646 52.0783 40.1312 54.469 42.4254 54.469C44.7198 54.4691 46.5864 52.0783 46.5864 49.1397ZM40.1746 50.3796C40.0889 50.2938 40.0385 50.1726 40.0385 50.0496C40.0385 49.9265 40.087 49.8072 40.1746 49.7196C40.348 49.5462 40.6611 49.5462 40.8346 49.7196C40.9204 49.8072 40.9706 49.9265 40.9706 50.0496C40.9706 50.1726 40.9202 50.292 40.8346 50.3796C40.7468 50.4654 40.6277 50.5157 40.5044 50.5157C40.3814 50.5155 40.2604 50.4652 40.1746 50.3796ZM43.413 53.2017C43.1425 53.3072 42.7923 53.3657 42.4275 53.3665C42.4249 53.3665 42.4223 53.3665 42.4196 53.3665C42.0577 53.3665 41.7106 53.3096 41.4415 53.206C40.8874 52.9925 40.8039 52.6444 40.8035 52.4559C40.803 52.1986 41.011 51.9892 41.2685 51.9888C41.2689 51.9888 41.2693 51.9888 41.2696 51.9888C41.476 51.9888 41.6509 52.1227 41.7123 52.3086C41.8105 52.36 42.0594 52.4311 42.4254 52.4344C42.7935 52.4337 43.04 52.3574 43.1384 52.3054C43.199 52.1191 43.3741 51.9843 43.5805 51.984C43.5808 51.984 43.5812 51.984 43.5816 51.984C43.8385 51.984 44.0471 52.192 44.0477 52.4492C44.0481 52.6375 43.966 52.9859 43.413 53.2017ZM44.6772 50.3701C44.5895 50.4577 44.4683 50.508 44.3471 50.508C44.2241 50.508 44.1027 50.4577 44.0171 50.3701C43.9295 50.2843 43.881 50.1631 43.881 50.0419C43.881 49.9189 43.9295 49.7977 44.0171 49.7119C44.1907 49.5385 44.5021 49.5367 44.6772 49.7119C44.7629 49.7977 44.8133 49.9189 44.8133 50.0419C44.8133 50.1631 44.7629 50.2843 44.6772 50.3701Z" fill="#D8B4A4"/>
<path d="M36.8896 44.5908C36.8896 44.5908 37.1863 45.9735 37.1895 45.986C37.2635 46.2741 37.3658 46.5358 37.5693 46.7322C37.7654 45.8445 38.0715 45.1449 38.4405 44.5908H36.8896Z" fill="#C69C6D"/>
<path d="M40.7705 55.0601V55.6531C40.8512 55.854 41.5441 56.4303 42.4223 56.4303C42.4232 56.4303 42.4245 56.4305 42.4254 56.4303C42.4269 56.4305 42.4277 56.4303 42.4286 56.4303C43.3069 56.4303 43.9998 55.8538 44.0803 55.6531V55.0601C43.5611 55.2801 43.0047 55.4011 42.4254 55.4011C41.8459 55.4013 41.2898 55.2801 40.7705 55.0601Z" fill="#D8B4A4"/>
<path d="M46.8986 56.6052C46.8887 56.6039 44.8234 56.2065 44.8234 56.2065C44.4257 56.8011 43.4504 57.3623 42.4283 57.3623H42.4225C41.4 57.3623 40.4242 56.8006 40.0268 56.2065C40.0268 56.2065 37.9621 56.6035 37.9522 56.605C36.0773 56.9149 35.4454 57.9055 35.4268 57.9496C35.4193 57.9672 33.7021 60.9621 33.7021 60.9621L36.6016 62.1041L37.3772 60.6444C37.4775 60.4555 37.694 60.3589 37.9015 60.4108C38.1092 60.4624 38.255 60.649 38.255 60.8631V68.0052H46.5956V60.8631C46.5956 60.649 46.7412 60.4626 46.9491 60.4108C47.157 60.3589 47.3729 60.4553 47.4734 60.6444L48.249 62.1041L51.1485 60.9621C51.1485 60.9621 49.4298 57.9653 49.421 57.9426C49.3964 57.8971 48.8855 56.8757 46.8986 56.6052Z" fill="#F4A04D"/>
<path d="M43.8066 75.3149V79.3706H45.5997L45.9176 75.3149H43.8066Z" fill="#D8B4A4"/>
<path d="M14.1966 21.3118C14.1951 21.3269 14.1927 21.3437 14.1899 21.3586L10.3135 41.1223H14.5893L17.4852 26.4839L15.0023 19.356C14.3055 20.3292 14.2035 21.2432 14.1966 21.3118Z" fill="#BADFE8"/>
<path d="M55.1514 81.4396H58.6433V78.7085H56.6085C56.4701 79.3079 56.0991 80.4499 55.1514 81.4396Z" fill="#998675"/>
<path d="M49.1211 62.7627L51.3385 67.8136C51.3447 67.828 51.3505 67.8425 51.3551 67.8573C51.3702 67.9039 51.4289 67.9481 51.5123 67.9755C51.6475 68.02 51.8209 68.0146 51.9887 67.9602C52.3149 67.8543 52.477 67.6162 52.4412 67.5052L50.4945 62.2217L49.1211 62.7627Z" fill="#D8B4A4"/>
<path d="M38.2549 74.3825H41.594L41.9615 70.6868C41.987 70.4306 42.2156 70.2443 42.4712 70.2689C42.6961 70.2913 42.8676 70.4701 42.8887 70.6868H42.8889L43.2563 74.3825H46.5954V68.9375H38.2549V74.3825Z" fill="#5576A5"/>
<path d="M56.6093 77.7761H58.6424V58.7896H54.4766C54.5168 60.624 54.7879 67.7661 56.6093 77.7761Z" fill="#E5CBBD"/>
<path d="M68.8931 27.1025L66.0926 28.3749C65.9979 28.6474 65.8789 28.8915 65.7441 29.1104L70.6194 45.1164C70.6227 45.1274 70.6255 45.1384 70.6281 45.1496C70.6932 45.4373 70.8662 45.6826 71.1157 45.8402C71.365 45.9977 71.6607 46.0488 71.9486 45.9839C72.2364 45.9189 72.4816 45.7458 72.6392 45.4964C72.7967 45.2469 72.8476 44.9512 72.7827 44.6635L68.8931 27.1025Z" fill="#E5CBBD"/>
<path d="M65.3862 24.5081C66.1478 25.1985 66.3894 26.2652 66.3192 27.2485L68.6872 26.1726L68.2556 24.2232C68.2248 24.0905 67.4524 20.8909 64.3286 20.1566L63.9604 20.0682C63.6237 21.7899 61.7687 22.9093 59.1323 22.9093C56.4961 22.9093 54.6429 21.7893 54.3063 20.0679L53.9381 20.1562C50.8121 20.8909 50.0396 24.0907 50.0083 24.2264L49.5752 26.1821L51.898 27.2374C51.8303 26.2572 52.073 25.1957 52.8319 24.5081C53.0226 24.3349 53.3174 24.3496 53.4902 24.5404C53.6631 24.7311 53.6487 25.0259 53.4578 25.1987C52.736 25.8532 52.6827 27.135 53.003 28.0631C53.2531 28.7873 53.6955 29.2577 54.1577 29.2907C54.3911 29.3075 54.5759 29.4947 54.5897 29.7283L54.7488 32.4301C54.7547 32.5332 54.7266 32.6352 54.6682 32.7204C51.1201 37.915 50.7765 54.8261 50.7435 57.8577H67.4738C67.4408 54.8259 67.0966 37.9139 63.5491 32.7204C63.4909 32.6352 63.4626 32.533 63.4685 32.4301L63.6276 29.7283C63.6414 29.4947 63.8262 29.3075 64.0596 29.2907C64.5216 29.2577 64.9642 28.7873 65.2141 28.0633C65.5346 27.1352 65.4814 25.8532 64.7595 25.1987C64.5688 25.0259 64.5542 24.7311 64.7271 24.5404C64.9008 24.3498 65.1954 24.3349 65.3862 24.5081Z" fill="#A881C9"/>
<path d="M59.5752 78.7085V81.4396H63.0672C62.1195 80.4499 61.7484 79.3079 61.6101 78.7085H59.5752Z" fill="#998675"/>
<path d="M59.5752 77.7761H61.6084C63.4308 67.7584 63.7011 60.6216 63.7412 58.7896H59.5752V77.7761Z" fill="#E5CBBD"/>
<path d="M59.1318 17.1408C58.6282 17.1408 58.145 17.0224 57.6967 16.8063V18.8865C57.6967 19.1021 57.5489 19.2895 57.3393 19.3398L55.2168 19.849C55.4536 21.1351 56.9647 21.9769 59.1318 21.9769C61.2991 21.9769 62.8101 21.1353 63.0469 19.849L60.9245 19.3398C60.715 19.2895 60.5671 19.1021 60.5671 18.8865V16.8062C60.1187 17.0224 59.6354 17.1408 59.1318 17.1408Z" fill="#E5CBBD"/>
<path d="M17.5211 79.6997C17.0431 80.2063 16.8986 80.9644 16.8564 81.44H22.9015V79.1411H18.9861C18.3553 79.1411 17.8761 79.3238 17.5211 79.6997Z" fill="#754C24"/>
<path d="M30.9193 79.1411H27.0039V81.44H33.0502C33.0088 80.9648 32.8649 80.2068 32.3813 79.6967C32.0266 79.3229 31.5484 79.1411 30.9193 79.1411Z" fill="#754C24"/>
<path d="M31.4719 45.0913H18.4336V78.2088H22.9251L24.4868 48.1401L24.49 48.1403C24.5023 47.9048 24.6884 47.7115 24.9291 47.6988C25.1808 47.6842 25.4056 47.883 25.4189 48.1401L26.9806 78.2088H31.4721V45.0913H31.4719Z" fill="#898785"/>
<path d="M18.4334 26.4499V44.1588H24.4861V20.7953L23.5217 18.9081L20.4528 20.3061C20.3913 20.3341 20.3253 20.3481 20.2597 20.3481C20.1748 20.3481 20.0905 20.3249 20.016 20.2793C19.8838 20.1981 19.8006 20.0568 19.7939 19.9021L19.6584 16.7783L18.2986 17.2471C18.287 17.251 18.2755 17.2545 18.2637 17.2575C17.1257 17.5528 16.3058 18.0342 15.7139 18.5639L18.4073 26.2965C18.4107 26.3056 18.4334 26.3752 18.4334 26.4499Z" fill="#BADFE8"/>
<path d="M32.4033 67.521V67.5743C32.4261 67.6855 32.5834 67.8704 32.8611 67.9605C33.0289 68.0147 33.2022 68.0201 33.3374 67.9758C33.4206 67.9484 33.4795 67.904 33.4946 67.8576C33.4993 67.8426 33.505 67.8281 33.5112 67.8139L35.7284 62.7631L34.3554 62.2222L32.4033 67.521Z" fill="#D8B4A4"/>
<path d="M43.8066 80.3027V81.4397H47.4237C47.3706 81.193 47.2621 80.8927 47.041 80.6663C46.8023 80.4217 46.4717 80.3029 46.0306 80.3029H43.8066V80.3027Z" fill="#999999"/>
<path d="M37.8095 80.6663C37.5886 80.8927 37.4799 81.193 37.4268 81.4397H41.0438V80.3027H38.8197C38.3788 80.3029 38.0482 80.4219 37.8095 80.6663Z" fill="#999999"/>
<path d="M39.2507 79.3706H41.044V75.3149H38.9326L39.2507 79.3706Z" fill="#D8B4A4"/>
<path d="M43.5808 51.9834C43.5804 51.9834 43.5801 51.9834 43.5797 51.9834C43.3733 51.984 43.1982 52.1186 43.1376 52.3048C43.0392 52.3569 42.7925 52.4331 42.4246 52.4339C42.0586 52.4305 41.8097 52.3595 41.7115 52.308C41.6501 52.1221 41.4751 51.9882 41.2689 51.9882C41.2685 51.9882 41.2681 51.9882 41.2677 51.9882C41.0103 51.9888 40.8022 52.198 40.8027 52.4553C40.8031 52.6438 40.8866 52.9919 41.4408 53.2054C41.7098 53.309 42.057 53.3659 42.4189 53.3659C42.4215 53.3659 42.4241 53.3659 42.4267 53.3659C42.7916 53.3652 43.1417 53.3066 43.4123 53.2011C43.9655 52.9854 44.0473 52.6369 44.0469 52.4484C44.0464 52.1915 43.8377 51.9834 43.5808 51.9834Z" fill="#1C1B1A"/>
<path d="M40.9701 50.0494C40.9701 49.9264 40.9198 49.807 40.8342 49.7194C40.6606 49.546 40.3476 49.546 40.1742 49.7194C40.0864 49.807 40.0381 49.9264 40.0381 50.0494C40.0381 50.1725 40.0886 50.2937 40.1742 50.3794C40.26 50.4652 40.381 50.5155 40.5042 50.5155C40.6273 50.5155 40.7466 50.4652 40.8344 50.3794C40.92 50.2918 40.9701 50.1725 40.9701 50.0494Z" fill="#1C1B1A"/>
<path d="M44.016 49.7118C43.9284 49.7976 43.8799 49.9188 43.8799 50.0418C43.8799 50.163 43.9284 50.2842 44.016 50.37C44.1018 50.4576 44.2229 50.5079 44.346 50.5079C44.467 50.5079 44.5884 50.4576 44.676 50.37C44.7618 50.2842 44.8121 50.163 44.8121 50.0418C44.8121 49.9188 44.7618 49.7976 44.676 49.7118C44.5009 49.5365 44.1896 49.5384 44.016 49.7118Z" fill="#1C1B1A"/>
<path d="M57.8519 13.4644C57.5944 13.4644 57.3857 13.673 57.3857 13.9305C57.3857 14.5159 58.0942 14.9248 59.1085 14.9248C60.1228 14.9248 60.8313 14.5159 60.8313 13.9305C60.8313 13.673 60.6227 13.4644 60.3652 13.4644C60.1433 13.4644 59.9578 13.6193 59.9106 13.8266C59.8187 13.8863 59.5452 13.9926 59.1083 13.9926C58.6715 13.9926 58.398 13.8863 58.3061 13.8266C58.2593 13.6191 58.0735 13.4644 57.8519 13.4644Z" fill="#1C1B1A"/>
<path d="M57.6274 11.6896C57.6274 11.5665 57.577 11.4453 57.4914 11.3595C57.3179 11.1861 57.0048 11.1861 56.8314 11.3595C56.7457 11.4453 56.6953 11.5665 56.6953 11.6896C56.6953 11.8126 56.7458 11.9319 56.8314 12.0196C56.9191 12.1053 57.0382 12.1557 57.1614 12.1557C57.2845 12.1557 57.4038 12.1053 57.4916 12.0196C57.577 11.9319 57.6274 11.8126 57.6274 11.6896Z" fill="#1C1B1A"/>
<path d="M61.0568 12.1557C61.1796 12.1557 61.2991 12.1053 61.3868 12.0196C61.4725 11.9319 61.5229 11.8126 61.5229 11.6896C61.5229 11.5665 61.4723 11.4472 61.3868 11.3595C61.2134 11.1861 60.9001 11.1861 60.7267 11.3595C60.641 11.4453 60.5908 11.5665 60.5908 11.6896C60.5908 11.8126 60.6412 11.9319 60.7267 12.0196C60.8142 12.1053 60.9335 12.1557 61.0568 12.1557Z" fill="#1C1B1A"/>
<path d="M24.9523 12.6431C25.9378 12.6431 26.6262 12.2428 26.6262 11.6692C26.6262 11.4118 26.4175 11.2031 26.1601 11.2031C25.941 11.2031 25.7571 11.3543 25.7072 11.5579C25.6166 11.6137 25.3581 11.7106 24.9523 11.7106C24.5464 11.7106 24.2881 11.6137 24.1973 11.5579C24.1474 11.3543 23.9635 11.2031 23.7444 11.2031C23.487 11.2031 23.2783 11.4118 23.2783 11.6692C23.2783 12.2428 23.9667 12.6431 24.9523 12.6431Z" fill="#1C1B1A"/>
<path d="M23.2736 9.27126C23.3614 9.18549 23.4115 9.0643 23.4115 8.94125C23.4115 8.82006 23.3612 8.69887 23.2736 8.6131C23.102 8.43802 22.7871 8.4397 22.6156 8.6131C22.5278 8.69887 22.4795 8.81819 22.4795 8.94125C22.4795 9.0643 22.528 9.18549 22.6156 9.27126C22.7014 9.35889 22.8224 9.40737 22.9437 9.40737C23.0668 9.40737 23.1878 9.35889 23.2736 9.27126Z" fill="#1C1B1A"/>
<path d="M26.9603 9.40723C27.0813 9.40723 27.2026 9.35875 27.2884 9.27112C27.376 9.18349 27.4264 9.06416 27.4264 8.94111C27.4264 8.81991 27.376 8.69872 27.2884 8.61296C27.115 8.43956 26.8036 8.43956 26.6302 8.61296C26.5426 8.69872 26.4941 8.81805 26.4941 8.94111C26.4941 9.06416 26.5426 9.18535 26.6302 9.27112C26.716 9.35875 26.8372 9.40723 26.9603 9.40723Z" fill="#1C1B1A"/>
<path d="M69.1647 24.0195C69.1373 23.8981 68.6098 21.6831 66.7116 20.2579C69.6397 16.9917 66.1819 9.844 65.6829 8.85862C65.6596 7.21415 65.132 5.88534 64.1136 4.9076C62.2495 3.1177 59.4099 3.15798 59.1312 3.16637C58.8472 3.15835 56.0113 3.11994 54.1497 4.9076C53.1313 5.88534 52.6036 7.21434 52.5803 8.85862C52.0814 9.844 48.6248 16.9909 51.5534 20.2573C49.6536 21.6825 49.126 23.8984 49.098 24.0217L44.8604 43.1526C43.9618 42.6575 43.0327 42.5548 42.4243 42.5548C41.9377 42.5548 41.2456 42.6206 40.5281 42.8999L40.6215 41.6226C40.6247 41.5812 36.6329 21.2004 36.6329 21.2004C36.592 20.8319 36.1065 17.4621 31.8922 16.36L28.1211 15.0603V13.4751C29.1779 12.2658 29.8503 10.4662 29.8503 8.45832L29.8499 3.79059C29.8517 3.74435 29.8836 2.64935 28.9739 1.70387C28.1245 0.820105 26.7713 0.37207 24.9519 0.37207C23.1325 0.37207 21.7791 0.820105 20.9295 1.70368C20.0198 2.64935 20.0517 3.74435 20.0532 3.77232V8.45813C20.0532 10.466 20.7257 12.2656 21.7823 13.4749V15.0601L18.0112 16.3598C13.7967 17.4621 13.3112 20.8321 13.2706 21.2002L9.28952 41.4988C9.2815 41.5394 9.27889 41.581 9.28206 41.6224L9.46403 44.1109L9.27554 45.5389C9.19984 46.1216 9.35552 46.699 9.71406 47.1645C10.0726 47.6303 10.5907 47.9284 11.1734 48.0041C11.2698 48.0166 11.366 48.0229 11.4618 48.0229C11.9442 48.0229 12.4107 47.865 12.7992 47.566C13.2596 47.2117 13.5562 46.7012 13.6362 46.1268L14.0331 44.2891L15.3813 41.8114C15.4037 41.77 15.4199 41.7255 15.4291 41.6792L17.5005 31.2083V44.6253C17.5005 44.6261 17.5009 44.627 17.5009 44.6279C17.5009 44.6287 17.5005 44.6296 17.5005 44.6305V78.5546C17.257 78.6862 17.037 78.8542 16.8425 79.06C15.8189 80.1444 15.9054 81.8606 15.9095 81.9332C15.9237 82.1798 16.1279 82.3724 16.3749 82.3724H23.3667C23.6242 82.3724 23.8328 82.1638 23.8328 81.9063V78.689L24.9519 57.1451L26.071 78.689V81.9063C26.071 82.1638 26.2796 82.3724 26.5371 82.3724H33.5289C33.7759 82.3724 33.9801 82.1798 33.9943 81.9332C33.9985 81.8606 34.0849 80.1444 33.0613 79.06C32.8668 78.854 32.6466 78.686 32.4033 78.5546V68.7826C32.4585 68.8063 32.5148 68.8287 32.5737 68.8477C32.7596 68.9081 32.9503 68.9381 33.1364 68.9381C33.3074 68.9381 33.4742 68.9126 33.6296 68.8615C33.99 68.7424 34.2592 68.4916 34.3726 68.1709L36.5963 63.1053L36.6463 63.1249C36.867 63.2116 37.1173 63.1193 37.2288 62.9099L37.322 62.7343V74.8495C37.322 75.1069 37.5306 75.3156 37.7881 75.3156H37.9973L38.3185 79.4124C37.8451 79.4944 37.4486 79.6986 37.1353 80.0225C36.4136 80.7686 36.4419 81.8752 36.4434 81.922C36.4518 82.1731 36.6578 82.3726 36.9094 82.3726H41.5096C41.7671 82.3726 41.9757 82.164 41.9757 81.9065V75.3156H42.0154C42.1912 75.3156 42.3453 75.2173 42.4245 75.0711C42.5039 75.2175 42.6577 75.3156 42.8336 75.3156H42.8733V81.9065C42.8733 82.164 43.0819 82.3726 43.3394 82.3726H47.9396C48.1911 82.3726 48.3972 82.1733 48.4056 81.922C48.4071 81.8752 48.4354 80.7686 47.7137 80.0225C47.4004 79.6986 47.0038 79.4944 46.5305 79.4124L46.8517 75.3156H47.0609C47.3184 75.3156 47.527 75.1069 47.527 74.8495V62.7343L47.6202 62.9099C47.7317 63.1193 47.9821 63.2114 48.2027 63.1249L48.2527 63.1053L50.4764 68.1709C50.5898 68.4918 50.8592 68.7425 51.2194 68.8615C51.3747 68.9126 51.5418 68.9381 51.7128 68.9381C51.8987 68.9381 52.0896 68.9081 52.2755 68.8477C53.0772 68.588 53.5392 67.8722 53.3213 67.2012L51.3615 61.8805L51.9915 61.6323C52.1176 61.5826 52.2158 61.4806 52.2606 61.3529C52.3053 61.225 52.2923 61.084 52.2249 60.9665L50.9752 58.7901H53.5441C53.5842 60.6505 53.8603 67.9908 55.7484 78.2506C55.689 78.6082 55.3045 80.458 53.5911 81.5088C53.4132 81.6181 53.3295 81.8319 53.386 82.0329C53.4426 82.2337 53.6259 82.3724 53.8346 82.3724H64.3821C64.5907 82.3724 64.774 82.2337 64.8307 82.0329C64.8874 81.8319 64.8035 81.6181 64.6256 81.5088C62.9114 80.4574 62.5275 78.6066 62.4684 78.2503C64.3551 67.9962 64.6319 60.6554 64.6724 58.7901H67.9429C68.2004 58.7901 68.409 58.5815 68.409 58.324C68.409 57.5077 68.3631 38.4032 64.408 32.3291L64.5369 30.1402C64.7022 30.0865 64.8607 30.007 65.011 29.9052L69.7225 45.373C69.8454 45.896 70.1625 46.3414 70.6175 46.6287C70.9471 46.837 71.3206 46.9442 71.7011 46.9442C71.8518 46.9442 72.0032 46.9274 72.1536 46.8934C72.6843 46.7736 73.1366 46.4544 73.4271 45.9944C73.7177 45.5344 73.8115 44.9889 73.692 44.4601L69.1647 24.0195ZM59.5977 4.10811C60.4283 4.15529 62.2363 4.39748 63.4679 5.57993C64.3195 6.3977 64.7515 7.53932 64.7515 8.97273C64.7515 9.04787 64.7697 9.12207 64.8044 9.18863C64.8454 9.26713 68.7692 16.8796 65.9059 19.752C65.5002 19.5423 65.0488 19.3683 64.5432 19.2496L61.4991 18.5191V16.1732C62.6237 15.1574 63.3645 13.4396 63.3645 11.4957V10.2113H63.3639C63.3641 9.99167 63.209 9.7959 62.9854 9.75339C62.9515 9.74686 59.5977 9.08422 59.5977 6.92217V4.10811ZM60.9242 19.3398L63.0466 19.849C62.8098 21.1351 61.2988 21.9769 59.1315 21.9769C56.9645 21.9769 55.4531 21.1353 55.2165 19.849L57.339 19.3398C57.5486 19.2895 57.6964 19.1021 57.6964 18.8865V16.8063C58.1447 17.0224 58.6279 17.1408 59.1315 17.1408C59.6351 17.1408 60.1184 17.0224 60.5668 16.8062V18.8865C60.5668 19.1021 60.7147 19.2895 60.9242 19.3398ZM59.1315 8.51146C59.9582 9.79422 61.6676 10.3759 62.4322 10.5799V11.4957C62.4322 14.0945 60.9516 16.2088 59.1315 16.2088C57.3114 16.2088 55.8309 14.0945 55.8309 11.4957V10.5799C56.5957 10.3759 58.3048 9.79422 59.1315 8.51146ZM53.4589 9.18863C53.4935 9.12207 53.5118 9.04787 53.5118 8.97273C53.5118 7.54137 53.9423 6.40124 54.7912 5.58366C56.0182 4.40252 57.8326 4.15715 58.6652 4.10867V6.92199C58.6652 9.07621 55.3108 9.74686 55.2769 9.75339C55.0536 9.79608 54.8988 9.99167 54.899 10.2113H54.8984V11.4957C54.8984 13.4398 55.6392 15.1576 56.764 16.1733V18.5191L53.7219 19.2492C53.2155 19.3681 52.7636 19.5425 52.3575 19.7526C49.4937 16.8802 53.418 9.26713 53.4589 9.18863ZM49.3684 27.1123L52.1198 28.3622C52.1202 28.3637 52.1207 28.3656 52.1213 28.367C52.2199 28.6525 52.3448 28.9068 52.4875 29.1335L47.6208 45.1164C47.6174 45.1272 47.6146 45.1384 47.612 45.1494C47.539 45.4725 47.3245 45.7384 47.0404 45.8848C46.7061 44.9225 46.2241 44.2334 45.6847 43.7421L49.3684 27.1123ZM42.4245 54.469C40.1301 54.469 38.2637 52.0784 38.2637 49.1398C38.2637 49.0538 38.2654 48.9697 38.2669 48.8856H39.7341C39.8944 48.8856 40.0436 48.8032 40.1288 48.6673L40.89 47.4547L41.6513 48.6673C41.7365 48.8031 41.8857 48.8856 42.046 48.8856H46.5823C46.5838 48.9697 46.5855 49.0538 46.5855 49.1398C46.5853 52.0782 44.7187 54.469 42.4245 54.469ZM44.0794 55.0601V55.6531C43.9987 55.8538 43.306 56.4303 42.4277 56.4303C42.4267 56.4303 42.426 56.4304 42.4245 56.4303C42.4236 56.4304 42.4223 56.4303 42.4213 56.4303C41.5432 56.4303 40.8501 55.854 40.7696 55.6531V55.0601C41.2888 55.2801 41.8452 55.4011 42.4245 55.4011C43.0038 55.4013 43.5602 55.2801 44.0794 55.0601ZM37.5694 46.7322C37.366 46.5358 37.2636 46.2743 37.1896 45.986C37.1862 45.9735 36.8898 44.5908 36.8898 44.5908H38.4407C38.0717 45.1451 37.7655 45.8445 37.5694 46.7322ZM45.0116 54.53C46.5101 53.4387 47.5175 51.4316 47.5175 49.1396C47.5175 48.2409 47.4351 47.4653 47.2913 46.7931C47.8962 46.5491 48.3634 46.0253 48.5172 45.3728L53.2236 29.9157C53.3684 30.0115 53.5206 30.0881 53.6794 30.1398L53.8081 32.3287C50.4216 37.5293 49.9012 52.2812 49.8214 56.9286C49.3697 56.4543 48.5279 55.8746 47.0294 55.6822L45.0115 55.2935L45.0116 54.53ZM42.4245 43.4869C44.8386 43.4869 46.2426 45.0256 46.5293 47.9532H42.3039L41.2847 46.33L41.2834 46.3307C41.2473 46.2729 41.1993 46.2217 41.1378 46.1831C40.92 46.0464 40.6322 46.112 40.4953 46.33L39.4762 47.9532H38.3198C38.6064 45.0256 40.0104 43.4869 42.4245 43.4869ZM39.5552 43.4253C39.4549 43.4973 39.3561 43.5749 39.2584 43.6586H36.589L35.7161 42.0546H39.6554L39.5552 43.4253ZM35.7071 21.31C35.7086 21.3262 35.7111 21.3426 35.714 21.3587L39.5905 41.1223H35.3147L32.4188 26.4839L34.9017 19.3558C35.5983 20.3289 35.7006 21.2425 35.7071 21.31ZM29.6448 20.3483C29.7294 20.3483 29.8139 20.3252 29.8885 20.2795C30.0207 20.1984 30.1038 20.0571 30.1105 19.9023L30.2461 16.7786L31.6059 17.2473C31.6174 17.2512 31.629 17.2547 31.6407 17.2577C32.7788 17.5531 33.5986 18.0347 34.1908 18.5642L31.4972 26.2967C31.494 26.3057 31.4712 26.3674 31.4712 26.45V44.1588H25.4186V20.7954L26.3829 18.908L29.4518 20.3062C29.5132 20.3343 29.579 20.3483 29.6448 20.3483ZM24.9519 19.6594L22.7145 15.2803V14.3154C23.3857 14.781 24.1461 15.0457 24.9519 15.0457C25.7577 15.0457 26.5181 14.7811 27.1893 14.3154V15.2803L24.9519 19.6594ZM29.3263 16.4616L29.2091 19.1714L26.8072 18.0772L27.8862 15.9653L29.3263 16.4616ZM21.6156 2.33499C22.2849 1.6511 23.4075 1.30431 24.9519 1.30431C26.4962 1.30431 27.6188 1.6511 28.2882 2.33499C28.9279 2.98868 28.9195 3.72701 28.9186 3.77232V6.15326C28.2546 5.94892 27.9175 5.26614 27.9175 4.1124C27.9175 3.85492 27.7089 3.64628 27.4514 3.64628H27.451C27.1936 3.64628 26.9849 3.85492 26.9849 4.1124C26.9849 4.47784 26.1931 5.00866 24.9521 5.00866C23.7111 5.00866 22.9192 4.47784 22.9192 4.1124C22.9192 3.85492 22.7106 3.64628 22.4531 3.64628H22.4527C22.1953 3.64628 21.9866 3.85492 21.9866 4.1124C21.9866 5.26633 21.6493 5.94892 20.9854 6.15326V3.75815C20.9845 3.72701 20.9761 2.98868 21.6156 2.33499ZM20.9852 8.45813V7.1131C21.8837 6.96114 22.4981 6.35481 22.7658 5.37018C23.2996 5.72443 24.0676 5.9409 24.9519 5.9409C25.836 5.9409 26.604 5.72443 27.138 5.37018C27.4057 6.35481 28.0197 6.9617 28.9186 7.11384V8.45813C28.9186 11.5765 27.1391 14.1133 24.9521 14.1133C22.7647 14.1133 20.9852 11.5765 20.9852 8.45813ZM22.0176 15.9653L23.0966 18.0774L20.6947 19.1714L20.5775 16.4616L22.0176 15.9653ZM12.7209 45.9478C12.7181 45.9605 12.7161 45.9733 12.7142 45.9862C12.6708 46.322 12.4988 46.6207 12.2304 46.8273C11.9621 47.0338 11.6289 47.1233 11.2935 47.0799C10.9577 47.0363 10.6594 46.8645 10.4526 46.5962C10.2462 46.3279 10.1563 45.9951 10.1999 45.6601L10.3409 44.591H13.0142L12.7209 45.9478ZM13.3147 43.6586H10.3655L10.2482 42.0546H14.1875L13.3147 43.6586ZM14.5889 41.1223H10.3131L14.1896 21.3587C14.1925 21.3437 14.1948 21.327 14.1963 21.3119C14.203 21.2432 14.3052 20.3291 15.0017 19.356L17.4847 26.4839L14.5889 41.1223ZM15.7134 18.5642C16.3054 18.0345 17.125 17.5529 18.2633 17.2577C18.2748 17.2547 18.2866 17.2512 18.2981 17.2473L19.6579 16.7786L19.7934 19.9023C19.8002 20.0571 19.8833 20.1984 20.0155 20.2795C20.0899 20.3252 20.1744 20.3483 20.2592 20.3483C20.325 20.3483 20.3908 20.3343 20.4523 20.3063L23.5213 18.9084L24.4856 20.7956V44.1592H18.4327V26.4504C18.4327 26.3756 18.41 26.306 18.4068 26.2971L15.7134 18.5642ZM22.9006 81.4398H16.8556C16.8979 80.9644 17.0422 80.2061 17.5203 79.6995C17.8751 79.3235 18.3544 79.1407 18.985 79.1407H22.9004L22.9006 81.4398ZM25.4178 48.14C25.4046 47.8829 25.1797 47.6844 24.928 47.6987C24.6873 47.7112 24.5013 47.9047 24.4889 48.1402L24.4858 48.14L22.9241 78.2087H18.4326V45.0912H31.4709V78.2087H26.9793L25.4178 48.14ZM33.0495 81.4398H27.0032V79.1409H30.9186C31.5477 79.1409 32.0259 79.3227 32.3805 79.6965C32.864 80.2065 33.0081 80.9646 33.0495 81.4398ZM32.4029 44.6275C32.4029 44.6268 32.4033 44.6259 32.4033 44.6249V31.208C32.4033 31.208 34.5001 41.7697 34.5225 41.8112L35.8707 44.289L36.2678 46.1268C36.5167 47.0633 36.7975 47.425 37.4055 47.7543C37.3585 48.1816 37.3315 48.6403 37.3315 49.1396C37.3315 51.4316 38.3389 53.4387 39.8373 54.53V55.2937L37.8194 55.6824C35.4101 55.9917 34.6968 57.3023 34.5765 57.5663L32.624 60.9662C32.5567 61.0836 32.5435 61.2248 32.5884 61.3525C32.6332 61.4802 32.7316 61.5822 32.8575 61.632L33.4875 61.8801L32.4033 64.8245V44.6302C32.4033 44.6294 32.4029 44.6285 32.4029 44.6275ZM33.511 67.8138C33.5048 67.8282 33.499 67.8427 33.4944 67.8575C33.4793 67.9041 33.4206 67.9483 33.3372 67.9757C33.202 68.0202 33.0288 68.0148 32.8608 67.9604C32.5832 67.8703 32.4258 67.6852 32.4031 67.5743V67.5209L34.355 62.2219L35.728 62.7628L33.511 67.8138ZM41.0435 81.4398H37.4264C37.4795 81.193 37.5882 80.8926 37.8092 80.6665C38.0478 80.4218 38.3784 80.3031 38.8195 80.3031H41.0437L41.0435 81.4398ZM41.0435 79.3706H39.2504L38.9323 75.315H41.0435V79.3706ZM47.04 80.6663C47.2611 80.8926 47.3697 81.1932 47.4228 81.4396H43.8057V80.3027H46.0298C46.4708 80.3029 46.8012 80.4218 47.04 80.6663ZM43.8055 79.3706V75.315H45.9165L45.5986 79.3706H43.8055ZM46.5948 74.3828H43.2557L42.8882 70.687H42.888C42.8669 70.4704 42.6954 70.2915 42.4705 70.2692C42.2149 70.2446 41.9862 70.4308 41.9608 70.687L41.5933 74.3828H38.2542V68.9378H46.5948V74.3828ZM52.4405 67.5055C52.4763 67.6166 52.3143 67.8547 51.988 67.9604C51.8204 68.0146 51.6468 68.0202 51.5116 67.9757C51.4284 67.9483 51.3695 67.9039 51.3544 67.8575C51.3498 67.8426 51.344 67.828 51.3378 67.8138L49.1204 62.763L50.4936 62.2221L52.4405 67.5055ZM51.1477 60.9624L48.2482 62.1044L47.4726 60.6447C47.3721 60.4559 47.1562 60.3593 46.9483 60.4111C46.7406 60.4628 46.5948 60.6494 46.5948 60.8634V68.0055H38.2542V60.8634C38.2542 60.6494 38.1086 60.4629 37.9007 60.4111C37.6932 60.3593 37.4767 60.4557 37.3764 60.6447L36.6008 62.1044L33.7013 60.9624C33.7013 60.9624 35.4185 57.9675 35.426 57.95C35.4446 57.9058 36.0765 56.915 37.9514 56.6053C37.9613 56.6037 40.026 56.2069 40.026 56.2069C40.4234 56.8009 41.399 57.3627 42.4217 57.3627H42.4275C43.4494 57.3627 44.4249 56.8015 44.8226 56.2069C44.8226 56.2069 46.8879 56.604 46.8978 56.6055C48.8847 56.8762 49.3956 57.8974 49.4204 57.9433C49.429 57.9657 51.1477 60.9624 51.1477 60.9624ZM58.6421 81.4398H55.1501C56.0978 80.4502 56.4689 79.3082 56.6072 78.7087H58.6421V81.4398ZM58.6421 77.7763H56.6091C54.7877 67.7663 54.5166 60.6242 54.4763 58.7898H58.6421V77.7763ZM63.0665 81.4398H59.5745V78.7087H61.6096C61.7476 79.3082 62.1188 80.4502 63.0665 81.4398ZM61.6076 77.7763H59.5744V58.7898H63.7403C63.7003 60.622 63.4301 67.7587 61.6076 77.7763ZM64.7597 25.1985C65.4814 25.853 65.5345 27.135 65.2142 28.0631C64.9642 28.7873 64.5217 29.2575 64.0597 29.2905C63.8263 29.3073 63.6415 29.4945 63.6277 29.7281L63.4687 32.4299C63.4627 32.5329 63.4909 32.635 63.5492 32.7202C67.0966 37.9137 67.441 54.8257 67.474 57.8575H50.7436C50.7766 54.8259 51.1202 37.9149 54.6683 32.7202C54.7265 32.635 54.7549 32.533 54.7489 32.4299L54.5899 29.7281C54.5761 29.4945 54.3913 29.3073 54.1579 29.2905C53.6956 29.2575 53.253 28.7871 53.0032 28.063C52.6827 27.1348 52.736 25.8528 53.4579 25.1985C53.6487 25.0257 53.6632 24.7309 53.4904 24.5402C53.3173 24.3496 53.0228 24.3347 52.832 24.5079C52.0734 25.1958 51.8304 26.257 51.8981 27.2372L49.5753 26.1819L50.0085 24.2262C50.0398 24.0903 50.8122 20.8907 53.9382 20.1561L54.3065 20.0677C54.643 21.7892 56.4963 22.9092 59.1325 22.9092C61.769 22.9092 63.624 21.7897 63.9605 20.0681L64.3288 20.1564C67.4527 20.8907 68.225 24.0903 68.2557 24.2231L68.6874 26.1724L66.3193 27.2484C66.3896 26.265 66.1479 25.1982 65.3863 24.5079C65.1956 24.3347 64.901 24.3496 64.728 24.5402C64.5544 24.7307 64.5687 25.0255 64.7597 25.1985ZM72.6389 45.4964C72.4814 45.7457 72.2362 45.9189 71.9483 45.984C71.6605 46.0488 71.3648 45.9979 71.1155 45.8402C70.866 45.6827 70.6928 45.4373 70.6279 45.1496C70.6253 45.1384 70.6225 45.1272 70.6192 45.1164L65.7439 29.1104C65.8789 28.8915 65.9977 28.6475 66.0924 28.3749L68.8928 27.1026L72.7825 44.6635C72.8476 44.9512 72.7965 45.2469 72.6389 45.4964Z" fill="#1C1B1A"/>
</g>
<defs>
<clipPath id="clip0_1217_4453">
<rect width="82" height="82" fill="white" transform="translate(0.5 0.37207)"/>
</clipPath>
</defs>
</svg>
