<svg width="82" height="83" viewBox="0 0 82 83" fill="none" xmlns="http://www.w3.org/2000/svg">
<g clip-path="url(#clip0_1217_4512)">
<path d="M64.6529 56.1653H42.4735H26.7496H9.07031L9.94749 63.0012L12.1788 80.4006H72.7681L74.9975 63.0012L75.8747 56.1653H64.6529Z" fill="#6E5B3F"/>
<path d="M74.9973 63.0015L72.7679 80.4008H12.1786L9.94727 63.0015H74.9973Z" fill="#A3875E"/>
<path d="M24.2027 35.5807C27.4099 38.7878 26.6784 44.7169 26.6784 44.7169C26.6784 44.7169 20.7491 45.4463 17.5422 42.2412C14.3371 39.0341 15.0665 33.105 15.0665 33.105C15.0665 33.105 20.9956 32.3735 24.2027 35.5807Z" fill="#B5E06C"/>
<path d="M73.8496 38.011C73.8496 38.011 74.4252 42.6788 71.9002 45.2038C69.3752 47.7269 64.7074 47.1532 64.7074 47.1532C64.7074 47.1532 64.1337 42.4854 66.6568 39.9604C69.1819 37.4356 73.8496 38.011 73.8496 38.011Z" fill="#B5E06C"/>
<path d="M48.5344 2.34351C51.8814 2.34351 54.5938 5.05783 54.5938 8.40478C54.5938 15.0988 49.1672 20.5254 42.4732 20.5254C35.7791 20.5254 30.3525 15.0988 30.3525 8.40478C30.3525 5.05783 33.0648 2.34351 36.4119 2.34351C39.759 2.34351 42.4732 5.05767 42.4732 8.40478C42.4732 5.05767 45.1875 2.34351 48.5344 2.34351Z" fill="#F78A68"/>
<path d="M72.7686 82.3719H12.1792C11.1876 82.3719 10.3504 81.635 10.2241 80.6515L7.11559 56.4163C7.04368 55.8544 7.21665 55.2887 7.59077 54.8633C7.9649 54.4379 8.50414 54.1943 9.07078 54.1943H75.8752C76.4416 54.1943 76.9807 54.4379 77.3552 54.8633C77.7294 55.2887 77.9024 55.8544 77.8303 56.4163L74.7238 80.6513C74.5976 81.635 73.7603 82.3719 72.7686 82.3719ZM13.9139 78.4297H71.0338L73.0426 62.7508C73.0426 62.7508 73.0426 62.7507 73.0426 62.7504L73.6347 58.1364H11.311L13.9139 78.4297Z" fill="black"/>
<path d="M78.3605 64.9727H74.9976C73.9092 64.9727 73.0264 64.0902 73.0264 63.0015C73.0264 61.9127 73.909 61.0303 74.9976 61.0303H78.3605C79.449 61.0303 80.3317 61.9127 80.3317 63.0015C80.3317 64.0902 79.4491 64.9727 78.3605 64.9727Z" fill="black"/>
<path d="M68.7393 64.9727H67.5073C66.4189 64.9727 65.5361 64.0902 65.5361 63.0015C65.5361 61.9127 66.4188 61.0303 67.5073 61.0303H68.7393C69.8277 61.0303 70.7105 61.9127 70.7105 63.0015C70.7105 64.0902 69.8277 64.9727 68.7393 64.9727Z" fill="black"/>
<path d="M61.1998 64.9727H3.64015C2.55173 64.9727 1.66895 64.0902 1.66895 63.0015C1.66895 61.9127 2.55157 61.0303 3.64015 61.0303H61.1998C62.2882 61.0303 63.171 61.9127 63.171 63.0015C63.171 64.0902 62.2882 64.9727 61.1998 64.9727Z" fill="black"/>
<path d="M26.7489 58.1368C25.6659 58.1368 24.7846 57.2623 24.778 56.1779L24.7071 44.7295C24.7003 43.6407 25.5774 42.753 26.6659 42.7461C26.6701 42.7461 26.6744 42.7461 26.6784 42.7461C27.7614 42.7461 28.6428 43.6205 28.6493 44.705L28.7203 56.1534C28.727 57.2422 27.85 58.1299 26.7614 58.1368C26.7572 58.1368 26.7531 58.1368 26.7489 58.1368Z" fill="black"/>
<path d="M25.2306 46.7587C22.9445 46.7587 18.8528 46.3381 16.1491 43.6358C12.3079 39.7921 13.0757 33.1458 13.1103 32.8647C13.2206 31.967 13.9276 31.2596 14.8254 31.1489C15.1063 31.1142 21.7534 30.344 25.597 34.1873C29.44 38.0304 28.6698 44.6775 28.6352 44.9586C28.5244 45.8562 27.8171 46.5633 26.9194 46.6737C26.8362 46.6841 26.1934 46.7587 25.2306 46.7587ZM16.9697 35.0137C17.0288 36.8279 17.4524 39.363 18.9368 40.8483C20.4988 42.4092 23.0856 42.7614 24.7764 42.8088C24.7176 40.9947 24.2945 38.4601 22.8093 36.9749C21.2469 35.4126 18.6602 35.0609 16.9697 35.0137Z" fill="black"/>
<path d="M64.653 58.1368C64.6489 58.1368 64.645 58.1368 64.6406 58.1368C63.5521 58.13 62.675 57.2421 62.6817 56.1534L62.7369 47.1412C62.7437 46.057 63.625 45.1824 64.7078 45.1824C64.712 45.1824 64.7158 45.1824 64.7203 45.1824C65.8087 45.1891 66.6859 46.077 66.6792 47.1657L66.6239 56.1779C66.6174 57.2622 65.736 58.1368 64.653 58.1368Z" fill="black"/>
<path d="M65.915 49.1873C65.1642 49.1873 64.6312 49.1299 64.4674 49.1098C63.5694 48.9994 62.8616 48.292 62.7513 47.3937C62.6807 46.8182 62.1502 41.682 65.2627 38.5673C65.2627 38.5673 65.263 38.5672 65.2633 38.567C68.379 35.4513 73.5165 35.9843 74.0911 36.0549C74.9887 36.1658 75.6956 36.8725 75.8063 37.7701C75.8772 38.3455 76.4096 43.4825 73.2942 46.5979C71.0656 48.8248 67.8026 49.1873 65.915 49.1873ZM68.0513 41.354C67.0886 42.3179 66.7409 43.9189 66.6474 45.214C67.9411 45.1207 69.5429 44.773 70.5072 43.8095C71.4697 42.847 71.8168 41.2374 71.9108 39.9498C70.6174 40.0427 69.0156 40.3902 68.0513 41.354Z" fill="black"/>
<path d="M42.4732 58.1367C41.3847 58.1367 40.502 57.2543 40.502 56.1655V20.5252C40.502 19.4364 41.3846 18.554 42.4732 18.554C43.5616 18.554 44.4444 19.4364 44.4444 20.5252V56.1655C44.4444 57.2543 43.5616 58.1367 42.4732 58.1367Z" fill="black"/>
<path d="M42.4732 39.9271C41.3847 39.9271 40.502 39.0447 40.502 37.9559C40.502 32.9563 44.5686 28.8887 49.5673 28.8887H51.7376C52.826 28.8887 53.7088 29.7711 53.7088 30.8599C53.7088 31.9486 52.8261 32.8311 51.7376 32.8311H49.5673C46.7424 32.8311 44.4442 35.1303 44.4442 37.9561C44.4444 39.0447 43.5616 39.9271 42.4732 39.9271Z" fill="black"/>
<path d="M42.4733 22.4964C34.7032 22.4964 28.3818 16.1748 28.3818 8.40455C28.3818 3.97527 31.9841 0.37207 36.4121 0.37207C38.8288 0.37207 40.9996 1.4448 42.4733 3.13925C43.9469 1.4448 46.1179 0.37207 48.5346 0.37207C52.9626 0.37207 56.5652 3.97527 56.5652 8.40455C56.5652 16.1748 50.2436 22.4964 42.4733 22.4964ZM36.4121 4.31432C34.1579 4.31432 32.3241 6.14923 32.3241 8.40439C32.3241 14.0009 36.877 18.5538 42.4733 18.5538C48.0697 18.5538 52.6228 14.0006 52.6228 8.40439C52.6228 6.14923 50.7888 4.31432 48.5346 4.31432C46.2795 4.31432 44.4445 6.14923 44.4445 8.40439C44.4445 9.49313 43.5619 10.3756 42.4733 10.3756C41.3849 10.3756 40.5021 9.49313 40.5021 8.40439C40.5021 6.14939 38.6672 4.31432 36.4121 4.31432Z" fill="black"/>
</g>
<defs>
<clipPath id="clip0_1217_4512">
<rect width="82" height="82" fill="white" transform="translate(0 0.37207)"/>
</clipPath>
</defs>
</svg>
