<svg width="82" height="83" viewBox="0 0 82 83" fill="none" xmlns="http://www.w3.org/2000/svg">
<path d="M40.9987 9.7334L48.3103 13.9701H56.7837L61.0204 21.3501L68.4004 25.5867V34.0601L72.637 41.3717L68.4004 48.6834V57.1567L61.0204 61.3934L56.7837 68.7734H48.3103L40.9987 73.0101L33.687 68.7734H25.2137L20.977 61.3934L13.597 57.1567V48.6834L9.36035 41.3717L13.597 34.0601V25.5867L20.977 21.3501L25.2137 13.9701H33.687L40.9987 9.7334Z" fill="#647EFF"/>
<path d="M40.999 64.537C28.2207 64.537 17.834 54.1504 17.834 41.372C17.834 28.5937 28.2207 18.207 40.999 18.207C53.7773 18.207 64.164 28.5937 64.164 41.372C64.164 54.1504 53.7773 64.537 40.999 64.537ZM40.999 20.1887C29.314 20.1887 19.8157 29.687 19.8157 41.372C19.8157 53.057 29.314 62.5554 40.999 62.5554C52.684 62.5554 62.1823 53.057 62.1823 41.372C62.1823 29.687 52.684 20.1887 40.999 20.1887Z" fill="white"/>
<path d="M38.4707 49.9822L28.4257 41.9872C27.6057 41.3038 27.469 40.1422 28.1524 39.3222C28.8357 38.5022 29.9974 38.3655 30.8174 39.0488L39.4274 45.9505L50.9074 33.1038C51.5907 32.3522 52.8207 32.2838 53.5724 32.9672C54.324 33.6505 54.3924 34.8805 53.709 35.6322L41.0674 49.7772C40.384 50.5288 39.2224 50.5972 38.4707 49.9822Z" fill="#FFD77A"/>
</svg>
